<?xml version="1.0" standalone="no"?>
<!DOCTYPE svg PUBLIC "-//W3C//DTD SVG 20010904//EN"
 "http://www.w3.org/TR/2001/REC-SVG-20010904/DTD/svg10.dtd">
<svg version="1.0" xmlns="http://www.w3.org/2000/svg"
 width="2000.000000pt" height="2000.000000pt" viewBox="0 0 2000.000000 2000.000000"
 preserveAspectRatio="xMidYMid meet">

<g transform="translate(0.000000,2000.000000) scale(0.100000,-0.100000)"
fill="#000000" stroke="none">
<path d="M2485 13749 c-49 -12 -102 -62 -115 -109 -6 -19 -170 -1052 -366
-2295 -355 -2256 -355 -2259 -339 -2302 28 -73 29 -73 404 -73 377 0 386 2
421 74 12 26 36 145 65 329 54 344 81 467 139 641 132 393 318 720 531 932 91
91 125 118 187 148 61 29 87 36 135 36 105 0 155 -51 173 -179 13 -92 6 -157
-72 -631 -56 -346 -61 -388 -62 -540 -1 -182 12 -265 64 -392 86 -212 225
-354 426 -438 121 -50 199 -63 374 -63 134 0 168 3 251 25 211 57 355 139 553
315 33 29 62 53 66 53 3 0 13 -15 22 -32 48 -100 176 -215 311 -278 100 -47
172 -66 302 -81 275 -31 580 39 809 185 32 20 60 35 62 33 2 -2 -6 -51 -17
-109 l-21 -106 -162 -55 c-719 -247 -883 -309 -1069 -404 -264 -135 -396 -258
-474 -443 -26 -61 -27 -75 -28 -210 0 -158 8 -196 68 -315 185 -370 728 -525
1240 -355 285 95 521 265 734 528 176 218 340 535 448 870 l35 108 57 28 c303
147 580 339 817 566 54 52 101 90 103 84 2 -6 26 -46 54 -88 62 -94 168 -182
284 -237 317 -148 782 -104 1109 105 32 20 60 35 62 33 2 -2 -6 -51 -17 -109
l-21 -105 -182 -63 c-456 -157 -652 -227 -791 -282 -468 -187 -682 -364 -746
-618 -18 -70 -21 -103 -16 -190 14 -267 158 -475 412 -596 262 -124 588 -137
896 -34 349 116 614 331 859 695 106 157 267 508 341 741 22 70 23 72 78 99
226 110 466 263 634 405 60 50 110 90 112 88 2 -2 -66 -442 -151 -978 -84
-536 -154 -991 -154 -1010 0 -42 20 -75 60 -95 24 -12 85 -15 350 -15 300 0
323 1 360 20 44 23 67 50 80 100 5 19 91 553 190 1185 215 1365 223 1415 260
1570 69 290 198 606 321 790 72 105 211 250 303 314 145 100 331 148 473 122
95 -17 144 -42 208 -102 66 -62 107 -141 129 -251 51 -249 -29 -624 -186 -869
-87 -135 -231 -252 -357 -289 -130 -37 -224 -34 -459 17 -81 17 -83 17 -120
-2 -34 -19 -42 -34 -124 -225 -94 -219 -103 -259 -68 -303 72 -92 395 -190
729 -221 781 -74 1506 143 1971 591 l86 82 54 -82 c74 -113 232 -268 355 -350
460 -304 1095 -338 1654 -89 384 172 698 443 944 817 72 110 195 355 226 450
25 79 20 110 -21 139 -35 25 -330 116 -374 116 -22 0 -49 -7 -61 -15 -12 -8
-49 -66 -83 -128 -105 -190 -180 -293 -302 -413 -167 -164 -319 -258 -532
-329 -148 -50 -282 -69 -441 -62 -219 9 -351 58 -473 176 -41 40 -102 125
-102 143 0 4 50 8 111 8 194 0 502 59 706 136 191 72 389 189 526 310 293 261
422 687 301 996 -97 249 -292 417 -576 499 -140 41 -249 52 -418 46 -378 -15
-732 -159 -1056 -430 -331 -277 -566 -728 -600 -1150 -6 -84 -10 -94 -58 -173
-69 -113 -151 -210 -255 -301 -202 -177 -403 -281 -594 -307 l-38 -5 61 45
c179 131 338 361 430 619 98 276 116 618 48 880 -92 350 -328 625 -641 745
-138 54 -229 72 -392 77 -182 6 -320 -16 -485 -78 -171 -64 -390 -202 -527
-332 -29 -28 -53 -47 -53 -43 0 4 9 66 20 137 18 115 19 133 6 163 -29 70 -34
71 -377 74 -209 2 -322 -1 -350 -8 -53 -15 -104 -64 -118 -115 -6 -22 -52
-300 -101 -617 l-91 -577 -60 -143 c-150 -357 -305 -594 -535 -819 -105 -102
-252 -219 -275 -219 -5 0 -6 12 -4 28 30 163 366 2327 367 2356 0 23 -7 48
-19 65 -36 48 -70 52 -408 49 -301 -3 -311 -4 -346 -25 -68 -42 -73 -62 -159
-633 -44 -289 -90 -572 -101 -630 -31 -155 -93 -338 -164 -485 -137 -281 -306
-446 -490 -475 -100 -16 -155 -1 -215 59 -65 66 -83 130 -82 291 0 110 16 225
126 935 70 446 127 827 128 849 0 23 -7 48 -19 65 -37 48 -70 52 -413 49 -308
-3 -316 -3 -352 -26 -22 -14 -44 -40 -56 -65 -14 -29 -50 -241 -122 -706 -114
-736 -105 -701 -221 -919 -128 -242 -238 -391 -420 -567 -103 -99 -249 -215
-273 -215 -3 0 -3 12 -1 28 30 163 366 2327 367 2356 0 23 -7 48 -19 65 -36
48 -70 52 -408 49 -292 -3 -312 -4 -345 -24 -67 -39 -71 -54 -159 -624 -102
-655 -113 -716 -163 -870 -134 -416 -359 -693 -593 -730 -89 -14 -149 -1 -203
46 -81 69 -111 201 -92 409 6 61 64 457 130 881 66 424 120 784 120 800 0 48
-33 91 -80 104 -27 7 -148 10 -353 8 -305 -3 -313 -4 -349 -26 -66 -41 -69
-52 -181 -783 l-104 -675 -44 -100 c-109 -250 -210 -413 -324 -529 -180 -182
-379 -190 -446 -17 -19 49 -22 76 -22 202 1 127 8 197 64 560 59 391 63 425
63 590 -1 324 -71 539 -224 686 -127 122 -269 174 -476 174 -340 0 -669 -182
-959 -530 -41 -50 -75 -88 -75 -85 0 3 81 517 181 1142 99 626 180 1154 181
1174 0 47 -15 75 -55 96 -28 16 -67 18 -337 20 -168 1 -323 -3 -345 -8z
m14696 -2570 c110 -55 138 -185 71 -322 -84 -170 -332 -347 -598 -426 -71 -21
-287 -61 -330 -61 -27 0 -27 6 7 144 92 371 477 718 764 688 28 -2 66 -13 86
-23z m-10622 -2971 c-121 -240 -320 -398 -520 -415 -86 -7 -135 2 -165 32 -81
82 60 192 431 338 251 98 269 105 273 96 2 -4 -7 -27 -19 -51z m3230 -17 c-85
-160 -189 -271 -318 -340 -143 -76 -333 -81 -371 -11 -51 95 126 208 595 381
72 26 131 48 133 49 2 0 -16 -36 -39 -79z"/>
</g>
</svg>
